<svg width="381" height="343" viewBox="0 0 381 343" fill="none" xmlns="http://www.w3.org/2000/svg">
<path d="M28.6271 189.083C28.2947 190.627 26.7738 191.609 25.2301 191.277C23.6864 190.944 22.7044 189.423 23.0368 187.88C23.3692 186.336 24.8901 185.354 26.4338 185.686C27.9776 186.019 28.9595 187.54 28.6271 189.083Z" fill="#EE1450"/>
<path d="M36.3439 176.186C35.7825 178.793 33.2139 180.452 30.6067 179.89C27.9995 179.329 26.3411 176.76 26.9025 174.153C27.4638 171.546 30.0325 169.887 32.6397 170.449C35.2468 171.01 36.9053 173.579 36.3439 176.186Z" fill="#EE1450"/>
<path d="M52.124 163.27C51.389 166.684 48.0261 168.855 44.6128 168.12C41.1994 167.385 39.0282 164.022 39.7632 160.609C40.4982 157.196 43.8611 155.024 47.2744 155.759C50.6878 156.494 52.859 159.857 52.124 163.27Z" fill="#EE1450"/>
<path d="M136.149 208.758C136.149 208.758 137.643 194.879 123.284 179.763C108.894 164.64 82.7776 160.967 82.7776 160.967L85.7292 164.917C85.7292 164.917 71.1199 163.039 61.2315 166.401C62.7673 168.324 63.9084 169.967 63.9084 169.967C63.9084 169.967 53.7385 170.865 45.1924 176.597C49.0885 179.028 49.0885 179.028 49.0885 179.028C49.0885 179.028 42.2944 183.414 37.7427 188.706C39.1747 190.055 39.7911 190.512 39.7911 190.512C39.7911 190.512 33.5696 197.07 29.3087 208.859C38.3826 199.016 57.4929 177.425 83.2549 176.408C106.778 175.526 119.437 184.199 136.149 208.758Z" fill="white"/>
<path d="M114.674 293.156C114.674 293.156 121.862 292.924 124.147 302.464C126.433 312.003 118.652 317.258 112.831 318.977C106.985 320.705 103.995 318.985 103.995 318.985C103.995 318.985 106.192 324.934 101.578 327.846C101.903 321.919 94.0175 317.534 89.8098 310.949C85.6021 304.363 81.8888 288.682 92.1323 272.874C87.9562 273.9 86.6137 274.838 86.6137 274.838C86.6137 274.838 85.8886 265.581 108.509 256.831C131.393 247.988 164.336 244.243 191.323 232.723C202.233 228.058 218.334 219.6 226.986 210.792C239.743 197.794 246.269 183.011 246.269 183.011C246.269 183.011 244.422 215.05 198.343 238.173C156.898 258.971 120.973 252.127 100.577 273.817C85.4025 289.973 97.2462 307.006 104.356 307.693C111.458 308.356 116.543 305.628 117.47 300.865C118.358 296.144 114.674 293.156 114.674 293.156Z" fill="white"/>
<path d="M17.4079 262.506C21.8949 271.776 32.3205 270.689 39.2603 266.491C43.152 264.133 45.6855 261.529 45.6855 261.529C45.6855 261.529 47.8903 271.07 59.9002 270.258C71.1544 269.525 79.6819 262.95 79.7014 258.294C78.6099 258.493 76.235 258.96 76.235 258.96C79.0774 254.489 77.1477 248.228 77.1477 248.228L74.3884 249.21C74.3884 249.21 70.8957 242.127 63.9464 244.248C72.5168 252.687 58.3062 262.662 52.763 254.146C47.2197 245.63 51.5135 227.154 72.755 218.327C85.0974 213.207 109.707 220.535 135.767 224.267C154.622 226.966 173.877 226.766 188.704 223.843C221.664 217.335 226.033 200.211 226.033 200.211C226.033 200.211 214.544 213.732 195.07 217.497C183.459 219.735 169.684 215.661 145.316 211.977C120.059 208.149 92.8952 202.378 74.3102 210.314C56.7638 217.826 49.6369 229.173 44.8837 239.595C40.2303 249.765 41.5764 258.26 34.611 262.387C30.5668 264.772 27.6207 261.657 27.526 259.339C27.3745 255.798 31.176 252.959 35.5792 255.231C30.0336 241.769 10.2554 247.643 17.4079 262.506Z" fill="#EE1450"/>
<path d="M143.083 48.0771C124.945 68.5065 94.8454 67.3432 97.4884 87.2087C100.131 107.074 149.386 121.596 179.091 111.414C201.495 103.711 222.203 105.725 238.296 122.9C253.375 138.995 248.704 157.786 237.517 178.467C228.738 194.692 210.916 206.703 191.708 197.357C156.23 180.116 177.937 151.852 177.937 151.852C177.937 151.852 175.955 169.686 200.509 179.994C219.528 187.968 237.941 170.897 242.403 154.832C245.479 143.819 242.134 133.313 228.502 124.962C214.857 116.639 205.884 113.048 183.941 114.033C162.011 114.988 139.598 137.509 112.603 123.397C88.1412 110.626 89.1001 77.79 97.7007 56.8232C106.314 35.8274 125.437 28.5381 136.771 25.5983C153.856 21.1567 158.898 10.8827 158.898 10.8827C158.898 10.8827 159.731 29.3481 143.083 48.0771ZM214.379 192.174C214.962 190.869 214.384 189.358 213.079 188.775C211.773 188.192 210.263 188.77 209.68 190.075C209.097 191.38 209.674 192.891 210.98 193.474C212.285 194.057 213.809 193.45 214.379 192.174ZM196.847 195.825C199.921 197.198 203.501 195.805 204.862 192.759C206.235 189.685 204.842 186.105 201.796 184.744C198.722 183.371 195.142 184.764 193.781 187.81C192.379 190.871 193.772 194.451 196.847 195.825ZM186.026 186.711C188.056 187.618 190.419 186.69 191.313 184.689C192.207 182.687 191.292 180.295 189.291 179.401C187.26 178.494 184.898 179.422 184.003 181.424C183.109 183.425 184.024 185.817 186.026 186.711ZM180.158 175.078C179.782 175.919 180.151 176.884 180.992 177.26C181.833 177.636 182.798 177.267 183.174 176.425C183.55 175.584 183.181 174.619 182.34 174.243C181.498 173.868 180.533 174.237 180.158 175.078ZM219.934 186.514C219.494 187.5 219.943 188.675 220.929 189.116C221.916 189.556 223.091 189.107 223.531 188.121C223.972 187.134 223.522 185.959 222.536 185.519C221.55 185.078 220.375 185.528 219.934 186.514ZM134.117 122.36C134.558 121.374 134.108 120.199 133.122 119.759C132.136 119.318 130.961 119.768 130.52 120.754C130.08 121.74 130.529 122.915 131.515 123.356C132.531 123.809 133.677 123.347 134.117 122.36ZM125.883 120.387C126.673 118.618 125.887 116.561 124.117 115.771C122.348 114.98 120.291 115.767 119.501 117.536C118.711 119.306 119.497 121.362 121.266 122.152C123.007 122.93 125.105 122.127 125.883 120.387ZM107.5 111.375C106.425 113.783 107.5 116.594 109.908 117.67C112.315 118.745 115.127 117.67 116.202 115.262C117.278 112.855 116.202 110.043 113.795 108.968C111.429 107.876 108.576 108.968 107.5 111.375ZM101.581 104.451C101.18 105.35 101.568 106.429 102.496 106.843C103.395 107.245 104.473 106.857 104.888 105.928C105.29 105.029 104.902 103.951 103.973 103.536C103.045 103.122 101.996 103.523 101.581 104.451ZM100.545 65.9572C100.039 67.0885 100.553 68.4313 101.684 68.9367C102.815 69.442 104.158 68.9285 104.664 67.7972C105.169 66.6659 104.655 65.3231 103.524 64.8178C102.393 64.3124 101.05 64.826 100.545 65.9572ZM105.319 57.0602C104.309 59.3227 105.336 62.0084 107.598 63.0191C109.861 64.0298 112.546 63.0026 113.557 60.7401C114.568 58.4776 113.541 55.7919 111.278 54.7812C109.016 53.7705 106.343 54.7686 105.319 57.0602ZM114.435 44.9876C112.44 49.4546 114.446 54.7001 118.913 56.6956C123.38 58.6911 128.626 56.6849 130.621 52.2179C132.616 47.7509 130.61 42.5054 126.143 40.5099C121.676 38.5144 116.431 40.5206 114.435 44.9876ZM131.608 35.0527C130.701 37.0832 131.629 39.4461 133.63 40.3402C135.661 41.2472 138.024 40.3195 138.918 38.318C139.825 36.2876 138.897 33.9246 136.896 33.0305C134.894 32.1365 132.502 33.0513 131.608 35.0527Z" fill="url(#paint0_linear_249_82778)"/>
<path d="M106.499 120.27C106.499 120.27 101.746 132.963 88.6166 132.095C75.4873 131.227 67.049 122.125 56.8445 131.303C70.1672 114.804 80.9141 121.335 90.3111 122.379C101.545 123.625 106.499 120.27 106.499 120.27Z" fill="white"/>
<path d="M95.1662 116.51C86.5123 114.242 84.2364 105.815 73.0598 111.401C80.7148 110.834 85.7298 123.046 95.1662 116.51Z" fill="white"/>
<path d="M173.676 48.9704C179.363 52.3698 185.209 49.1611 188.481 42.839C191.753 36.5169 190.737 26.4461 199.441 21.1406C186.797 22.0302 178.315 29.4324 174.185 34.0707C170.055 38.709 169.515 46.4925 173.676 48.9704Z" fill="white"/>
<path d="M163.51 42.553C163.51 42.553 152.264 47.7631 143.686 68.6355C135.109 89.5079 142.193 108.76 142.193 108.76C142.193 108.76 147.721 92.9707 163.51 82.1056C179.3 71.2406 191.34 61.5827 191.531 45.9841C185.526 57.0397 177.902 66.6023 167.164 61.4874C156.394 56.3726 163.51 42.553 163.51 42.553Z" fill="white"/>
<path d="M46.896 86.7187C46.896 86.7187 46.9747 80.4798 53.6158 75.7727C60.2568 71.0657 70.0839 75.9592 73.621 81.2562C77.1581 86.5532 77.6099 90.2322 75.8524 94.6945C75.0152 93.6473 74.3497 93.0536 74.3497 93.0536C74.3497 93.0536 72.6368 97.5101 68.8363 98.9516C68.8249 97.4581 68.5173 97.1807 68.5173 97.1807C68.5173 97.1807 65.9011 99.3754 62.0166 98.5853C62.4615 97.6446 62.486 96.7807 62.486 96.7807C62.486 96.7807 58.0719 95.2209 56.4579 91.4879C54.844 87.7549 57.6421 84.3362 59.2024 83.614C58.0587 88.269 61.5686 90.8967 64.4793 91.3367C67.1809 91.7358 68.7766 87.9512 65.5837 84.4445C61.8647 80.3715 58.3661 79.2371 54.0186 81.1795C48.8475 83.4093 46.896 86.7187 46.896 86.7187Z" fill="white"/>
<path d="M72.9847 281.129L69.2274 299.53L48.326 307.631L55.7427 288.613L72.9847 281.129Z" fill="#11C0AE"/>
<path d="M56.0709 142.311L45.069 145.061L35.2078 135.788L47.4998 134.87L56.0709 142.311Z" fill="#11C0AE"/>
<path d="M207.353 40.3211L207.917 27.1349L221.521 19.1919L218.487 33.2129L207.353 40.3211Z" fill="#11C0AE"/>
<path d="M274.666 22.7661C248.525 19.3744 222.345 36.8125 209.421 63.8916C196.497 90.9708 198.635 124.334 213.487 150.464C196.709 145.01 193.763 140.054 193.763 140.054C193.763 140.054 197.819 157.6 212.229 171.164C203.99 174.165 196.728 171.126 196.728 171.126C196.728 171.126 216.718 190.293 249.867 194.588C240.787 205.166 225.286 206.165 225.286 206.165C225.286 206.165 225.523 228.441 316.598 198.092C316.598 198.092 303.717 200 259.465 176.018C215.214 152.036 208.166 102.296 224.202 75.2867C240.222 48.306 255.865 48.4165 273.474 57.5904C291.098 66.736 293.757 98.3297 293.757 98.3297C293.757 98.3297 320.867 83.5896 297.394 39.1274C304.094 40.6951 305.967 41.9138 305.967 41.9138C305.967 41.9138 300.822 26.1296 274.666 22.7661ZM252.877 202.117C252.877 202.117 262.394 197.058 263.383 194.315C264.329 191.585 259.471 189.36 254.791 182.364C272.563 191.085 293.867 198.092 293.867 198.092C275.246 202.914 252.877 202.117 252.877 202.117ZM291.031 59.0481C291.031 59.0481 288.738 53.1064 271.986 45.6633C255.234 38.2203 242.136 46.5413 242.136 46.5413C242.136 46.5413 251.008 28.061 273.597 34.6588C292.11 40.0795 291.031 59.0481 291.031 59.0481Z" fill="url(#paint1_linear_249_82778)"/>
<defs>
<linearGradient id="paint0_linear_249_82778" x1="563.768" y1="-171.355" x2="-844.536" y2="850.572" gradientUnits="userSpaceOnUse">
<stop stop-color="#EE1450"/>
<stop offset="0.966" stop-color="#881735"/>
</linearGradient>
<linearGradient id="paint1_linear_249_82778" x1="266.498" y1="-74.886" x2="346.294" y2="1663.3" gradientUnits="userSpaceOnUse">
<stop stop-color="#EE1450"/>
<stop offset="0.966" stop-color="#881735"/>
</linearGradient>
</defs>
</svg>
