<svg width="41" height="19" viewBox="0 0 41 19" fill="none" xmlns="http://www.w3.org/2000/svg">
<g opacity="0.8">
<path d="M7.14878 18.746H4.77012V3.08623L0 4.8262V2.69251L6.77792 0.165107H7.14878V18.746Z" fill="white"/>
<path d="M25.3724 5.08021C25.3724 6.00312 25.1252 6.82442 24.6307 7.54412C24.1447 8.26381 23.484 8.82687 22.6485 9.23329C23.6204 9.64817 24.3877 10.2536 24.9504 11.0495C25.5216 11.8454 25.8072 12.7471 25.8072 13.7547C25.8072 15.3549 25.2616 16.6292 24.1703 17.5775C23.0875 18.5258 21.6595 19 19.8862 19C18.0958 19 16.6592 18.5258 15.5764 17.5775C14.5022 16.6208 13.9651 15.3465 13.9651 13.7547C13.9651 12.7556 14.2379 11.8538 14.7835 11.0495C15.3377 10.2451 16.1007 9.63547 17.0727 9.22059C16.2457 8.81417 15.5935 8.25111 15.116 7.53142C14.6386 6.81172 14.3999 5.99465 14.3999 5.08021C14.3999 3.52228 14.9029 2.2861 15.9089 1.37166C16.915 0.457219 18.2407 0 19.8862 0C21.5231 0 22.8446 0.457219 23.8506 1.37166C24.8651 2.2861 25.3724 3.52228 25.3724 5.08021ZM23.4414 13.7039C23.4414 12.6709 23.1089 11.8284 22.4439 11.1765C21.7874 10.5245 20.9263 10.1985 19.8606 10.1985C18.7949 10.1985 17.938 10.5203 17.2901 11.1638C16.6507 11.8073 16.3309 12.654 16.3309 13.7039C16.3309 14.7538 16.6421 15.5793 17.2645 16.1805C17.8954 16.7816 18.7693 17.0822 19.8862 17.0822C20.9945 17.0822 21.8641 16.7816 22.495 16.1805C23.1259 15.5709 23.4414 14.7453 23.4414 13.7039ZM19.8862 1.93048C18.9569 1.93048 18.2023 2.21836 17.6226 2.79412C17.0514 3.36141 16.7658 4.13614 16.7658 5.11832C16.7658 6.05816 17.0471 6.82019 17.6098 7.40441C18.181 7.98017 18.9398 8.26805 19.8862 8.26805C20.8325 8.26805 21.587 7.98017 22.1497 7.40441C22.7209 6.82019 23.0065 6.05816 23.0065 5.11832C23.0065 4.17848 22.7124 3.41221 22.1241 2.81952C21.5359 2.22683 20.7899 1.93048 19.8862 1.93048Z" fill="white"/>
<path d="M35.8079 8.82687H41V11.0495H35.8079V16.8917H33.4292V11.0495H28.2371V8.82687H33.4292V3.42914H35.8079V8.82687Z" fill="white"/>
</g>
</svg>
