<svg width="226" height="41" viewBox="0 0 226 41" fill="none" xmlns="http://www.w3.org/2000/svg">
<path d="M9.65033 28.5537H7.74816V15.9441L3.93359 17.3452V15.6271L9.35376 13.592H9.65033V28.5537Z" fill="white"/>
<path d="M24.2234 17.5497C24.2234 18.2929 24.0257 18.9542 23.6303 19.5337C23.2417 20.1132 22.7133 20.5666 22.0451 20.8939C22.8224 21.2279 23.436 21.7154 23.8859 22.3563C24.3427 22.9972 24.5711 23.7233 24.5711 24.5346C24.5711 25.8232 24.1348 26.8492 23.2621 27.6128C22.3962 28.3764 21.2543 28.7582 19.8362 28.7582C18.4044 28.7582 17.2556 28.3764 16.3897 27.6128C15.5307 26.8424 15.1012 25.8163 15.1012 24.5346C15.1012 23.7301 15.3193 23.004 15.7557 22.3563C16.1988 21.7086 16.809 21.2177 17.5863 20.8836C16.9249 20.5564 16.4034 20.103 16.0216 19.5235C15.6398 18.944 15.4489 18.2861 15.4489 17.5497C15.4489 16.2953 15.8511 15.2999 16.6556 14.5635C17.4601 13.8272 18.5203 13.459 19.8362 13.459C21.1452 13.459 22.2019 13.8272 23.0064 14.5635C23.8178 15.2999 24.2234 16.2953 24.2234 17.5497ZM22.6792 24.4937C22.6792 23.6619 22.4133 22.9835 21.8815 22.4586C21.3565 21.9336 20.6679 21.6711 19.8157 21.6711C18.9635 21.6711 18.2783 21.9302 17.7601 22.4483C17.2488 22.9665 16.9931 23.6483 16.9931 24.4937C16.9931 25.3391 17.242 26.0038 17.7397 26.4879C18.2442 26.972 18.943 27.214 19.8362 27.214C20.7225 27.214 21.4179 26.972 21.9224 26.4879C22.4269 25.997 22.6792 25.3323 22.6792 24.4937ZM19.8362 15.0135C19.093 15.0135 18.4896 15.2453 18.026 15.7089C17.5692 16.1657 17.3408 16.7895 17.3408 17.5804C17.3408 18.3372 17.5658 18.9508 18.0158 19.4212C18.4726 19.8848 19.0794 20.1166 19.8362 20.1166C20.5929 20.1166 21.1963 19.8848 21.6463 19.4212C22.1031 18.9508 22.3315 18.3372 22.3315 17.5804C22.3315 16.8236 22.0963 16.2066 21.6258 15.7294C21.1554 15.2521 20.5588 15.0135 19.8362 15.0135Z" fill="white"/>
<path d="M32.5684 20.5666H36.7205V22.3563H32.5684V27.0606H30.6663V22.3563H26.5142V20.5666H30.6663V16.2203H32.5684V20.5666Z" fill="white"/>
<circle cx="20" cy="21" r="19.3788" stroke="white" stroke-width="1.24242"/>
<path d="M54.0569 14H55.6089V9.264H59.9609C62.4729 9.264 63.7849 7.92 63.7849 5.92C63.7849 3.84 62.4729 2.64 59.9609 2.64H54.0569V14ZM60.0089 4.08C61.4649 4.08 62.1849 4.768 62.1849 5.952C62.1849 7.04 61.4649 7.824 60.0089 7.824H55.6089V4.08H60.0089ZM69.1155 5.904C66.7955 5.904 65.0995 7.648 65.0995 10.048C65.0995 12.368 66.8275 14.192 69.2595 14.192C71.9155 14.192 72.9395 12.416 73.0515 11.744H71.6115C71.4675 12 70.8595 12.848 69.2595 12.848C67.7075 12.848 66.6515 11.696 66.5715 10.224H73.1475C73.1475 7.632 71.4355 5.904 69.1155 5.904ZM69.1155 7.152C70.2995 7.152 71.1795 7.824 71.5315 9.008H66.6675C66.9715 7.872 67.8515 7.152 69.1155 7.152ZM75.4564 14H76.8644V10.384L81.2484 14H83.3124L78.4324 9.888L83.1044 6.096H81.0244L76.8644 9.52V6.096H75.4564V14ZM85.5975 10.48C85.4215 12.288 85.1975 12.8 84.1095 12.8H83.9175V14.112H84.3495C86.0455 14.112 86.6535 13.008 86.8935 10.576L87.1975 7.408H90.4615V14H91.9175V6.096H86.0295L85.5975 10.48ZM101.006 12.64V14H102.462V6.096H101.006V7.408C100.814 6.992 99.9339 5.904 98.2059 5.904C96.1259 5.904 94.3499 7.472 94.3499 10.048C94.3499 12.656 96.1259 14.192 98.2059 14.192C99.9979 14.192 100.814 13.04 101.006 12.64ZM101.038 10.048C101.038 11.616 100.014 12.848 98.4779 12.848C96.8939 12.848 95.8539 11.616 95.8539 10.048C95.8539 8.464 96.8939 7.248 98.4779 7.248C100.014 7.248 101.038 8.464 101.038 10.048ZM105.473 14H106.849V7.856L109.985 14.048H110.993L114.161 7.792V14H115.585V6.096H113.713L110.561 12.32L107.409 6.096H105.473V14ZM124.678 12.64V14H126.134V6.096H124.678V7.408C124.486 6.992 123.606 5.904 121.878 5.904C119.798 5.904 118.022 7.472 118.022 10.048C118.022 12.656 119.798 14.192 121.878 14.192C123.67 14.192 124.486 13.04 124.678 12.64ZM124.71 10.048C124.71 11.616 123.686 12.848 122.15 12.848C120.566 12.848 119.526 11.616 119.526 10.048C119.526 8.464 120.566 7.248 122.15 7.248C123.686 7.248 124.71 8.464 124.71 10.048ZM129.049 14H130.905V11.728H129.049V14ZM138.307 14H143.987C146.595 14 147.923 12.736 147.923 10.736C147.923 9.28 146.979 8.32 145.859 8.032C146.771 7.76 147.683 6.944 147.683 5.712C147.683 3.76 146.339 2.64 143.875 2.64H138.307V14ZM143.843 4.064C145.347 4.064 146.083 4.608 146.083 5.744C146.083 6.832 145.331 7.424 143.843 7.424H139.843V4.064H143.843ZM143.955 8.848C145.587 8.848 146.355 9.52 146.355 10.704C146.355 11.872 145.603 12.576 143.955 12.576H139.843V8.848H143.955ZM154.022 5.904C151.702 5.904 150.006 7.648 150.006 10.048C150.006 12.368 151.734 14.192 154.166 14.192C156.822 14.192 157.846 12.416 157.958 11.744H156.518C156.374 12 155.766 12.848 154.166 12.848C152.614 12.848 151.558 11.696 151.478 10.224H158.054C158.054 7.632 156.342 5.904 154.022 5.904ZM154.022 7.152C155.206 7.152 156.086 7.824 156.438 9.008H151.574C151.878 7.872 152.758 7.152 154.022 7.152ZM161.707 11.36C161.707 13.12 162.603 14 164.475 14H166.347V12.656H164.795C163.547 12.656 163.163 12.176 163.163 11.024V7.408H166.347V6.096H163.163V2.64H161.707V6.096H159.371V7.408H161.707V11.36ZM174.279 8.56H175.751C175.639 7.968 174.823 5.904 171.975 5.904C169.719 5.904 167.975 7.712 167.975 10.048C167.975 12.384 169.735 14.192 171.991 14.192C174.823 14.192 175.655 12.08 175.751 11.536H174.311C174.183 11.808 173.591 12.848 171.991 12.848C170.519 12.848 169.479 11.6 169.479 10.048C169.479 8.496 170.519 7.248 171.975 7.248C173.543 7.248 174.151 8.304 174.279 8.56ZM178.051 4.576H179.571V2.288H178.051V4.576ZM178.083 14H179.539V6.096H178.083V14ZM183.879 11.36C183.879 13.12 184.775 14 186.647 14H188.519V12.656H186.967C185.719 12.656 185.335 12.176 185.335 11.024V7.408H188.519V6.096H185.335V2.64H183.879V6.096H181.543V7.408H183.879V11.36ZM191.569 17.584H193.057L198.241 6.096H196.737L194.033 12.112L191.329 6.096H189.681L193.265 13.824L191.569 17.584ZM199.377 14H201.233V11.728H199.377V14ZM204.401 14H205.953V8.944H210.241L212.961 14H214.609L211.857 8.784C213.361 8.4 214.177 7.36 214.177 5.856C214.177 3.744 212.881 2.64 210.433 2.64H204.401V14ZM210.385 4.08C211.841 4.08 212.577 4.624 212.577 5.856C212.577 7.008 211.841 7.52 210.385 7.52H205.953V4.08H210.385ZM220.604 14.176C222.876 14.176 224.3 12.688 224.3 10.656V6.096H222.828V10.384C222.828 11.84 222.012 12.816 220.588 12.816C219.164 12.816 218.348 11.84 218.348 10.384V6.096H216.892V10.656C216.892 12.688 218.332 14.176 220.604 14.176Z" fill="white"/>
</svg>
