<svg width="164" height="12" viewBox="0 0 164 12" fill="none" xmlns="http://www.w3.org/2000/svg">
<path d="M0.0649717 11.1809H3.13876V3.204H7.53203V11.1809H10.6058V0.535046H0.0649717V11.1809ZM18.096 11.3608C21.3047 11.3608 23.8087 9.17165 23.8087 5.85795C23.8087 2.49927 21.3047 0.355116 18.096 0.355116C14.8872 0.355116 12.3832 2.49927 12.3832 5.85795C12.3832 9.17165 14.8722 11.3608 18.096 11.3608ZM18.096 8.63186C16.4766 8.63186 15.502 7.41734 15.502 5.85795C15.502 4.29856 16.4916 3.08404 18.096 3.08404C19.7153 3.08404 20.6899 4.29856 20.6899 5.85795C20.6899 7.41734 19.7153 8.63186 18.096 8.63186ZM29.1478 6.7426L29.5226 3.204H32.7464V11.1809H35.8202V0.535046H26.9287L26.2989 6.53268C26.164 7.7622 25.8791 8.25701 24.8445 8.25701H24.6196V11.3308H24.8595C28.0382 11.3308 28.8329 9.81639 29.1478 6.7426ZM42.9808 11.1809L49.3982 0.535046H46.0696L43.5356 4.73339L40.7616 0.535046H37.0881L41.7962 7.62725L39.6521 11.1809H42.9808ZM57.5276 11.1809H60.6014V0.535046H57.5276V4.94331C57.5276 4.94331 56.4031 5.13823 55.0836 5.13823C53.8991 5.13823 53.2993 4.7034 53.2993 3.53386V0.535046H50.2255V3.53386C50.2255 6.66763 51.8898 7.80718 54.7987 7.80718C56.0732 7.80718 57.5276 7.61226 57.5276 7.61226V11.1809ZM62.8528 11.1809H65.9265L70.6197 4.79337V11.1809H73.6935V0.535046H70.6197L65.9265 6.95252V0.535046H62.8528V11.1809ZM79.152 11.1809H82.2108V3.17401H86.0643V0.535046H75.2986V3.17401H79.152V11.1809ZM93.9696 3.65382H90.7309V0.535046H87.6721V11.1809H93.9696C96.5186 11.1809 98.078 9.92135 98.078 7.41734C98.078 4.91332 96.5186 3.65382 93.9696 3.65382ZM93.5648 6.29278C94.4944 6.29278 94.9292 6.71261 94.9292 7.41734C94.9292 8.18204 94.4944 8.54189 93.5648 8.54189H90.7309V6.29278H93.5648ZM109.8 4.49349H106.501V3.17401H112.889V0.535046H103.442V11.1809H109.8C112.319 11.1809 113.848 10.0263 113.848 7.71722C113.848 5.57306 112.319 4.49349 109.8 4.49349ZM109.545 6.89254C110.325 6.89254 110.699 7.19243 110.699 7.71722C110.699 8.28699 110.325 8.54189 109.545 8.54189H106.501V6.89254H109.545ZM120.902 11.3608C124.111 11.3608 126.615 9.17165 126.615 5.85795C126.615 2.49927 124.111 0.355116 120.902 0.355116C117.693 0.355116 115.189 2.49927 115.189 5.85795C115.189 9.17165 117.678 11.3608 120.902 11.3608ZM120.902 8.63186C119.283 8.63186 118.308 7.41734 118.308 5.85795C118.308 4.29856 119.298 3.08404 120.902 3.08404C122.522 3.08404 123.496 4.29856 123.496 5.85795C123.496 7.41734 122.522 8.63186 120.902 8.63186ZM128.393 11.1809H131.467V7.19243H136.01V11.1809H139.084V0.535046H136.01V4.52348H131.467V0.535046H128.393V11.1809ZM146.256 11.1809L152.673 0.535046H149.344L146.81 4.73339L144.036 0.535046H140.363L145.071 7.62725L142.927 11.1809H146.256ZM158.427 11.3608C162.176 11.3608 163.376 8.61686 163.525 7.62725H160.422C160.257 7.88215 159.717 8.61686 158.427 8.61686C156.913 8.61686 156.013 7.38735 156.013 5.85795C156.013 4.32855 156.913 3.09904 158.427 3.09904C159.687 3.09904 160.242 3.84874 160.407 4.10364H163.525C163.331 2.90411 162.056 0.355116 158.427 0.355116C155.159 0.355116 152.88 2.64921 152.88 5.85795C152.88 9.05169 155.159 11.3608 158.427 11.3608Z" fill="white"/>
</svg>
