<svg width="81" height="25" viewBox="0 0 81 25" fill="none" xmlns="http://www.w3.org/2000/svg">
<path d="M0.952806 9.21417H3.46087V2.70544H7.04557V9.21417H9.55364V0.527701H0.952806V9.21417ZM15.6652 9.36099C18.2834 9.36099 20.3266 7.57475 20.3266 4.87094C20.3266 2.13042 18.2834 0.380887 15.6652 0.380887C13.0471 0.380887 11.0039 2.13042 11.0039 4.87094C11.0039 7.57475 13.0348 9.36099 15.6652 9.36099ZM15.6652 7.13431C14.3439 7.13431 13.5487 6.14332 13.5487 4.87094C13.5487 3.59855 14.3561 2.60756 15.6652 2.60756C16.9866 2.60756 17.7818 3.59855 17.7818 4.87094C17.7818 6.14332 16.9866 7.13431 15.6652 7.13431ZM24.683 5.59277L24.9888 2.70544H27.6193V9.21417H30.1273V0.527701H22.8723L22.3584 5.42149C22.2483 6.42471 22.0159 6.82845 21.1717 6.82845H20.9882V9.33652H21.1839C23.7776 9.33652 24.4261 8.10084 24.683 5.59277ZM35.97 9.21417L41.2064 0.527701H38.4903L36.4227 3.95335L34.1593 0.527701H31.1619L35.0035 6.3146L33.254 9.21417H35.97ZM47.8396 9.21417H50.3476V0.527701H47.8396V4.12463C47.8396 4.12463 46.922 4.28368 45.8454 4.28368C44.8788 4.28368 44.3895 3.92888 44.3895 2.97459V0.527701H41.8814V2.97459C41.8814 5.5316 43.2394 6.46142 45.6129 6.46142C46.6528 6.46142 47.8396 6.30237 47.8396 6.30237V9.21417ZM52.1846 9.21417H54.6927L58.5221 4.00229V9.21417H61.0302V0.527701H58.5221L54.6927 5.76405V0.527701H52.1846V9.21417ZM65.4841 9.21417H67.9799V2.68097H71.1242V0.527701H62.3398V2.68097H65.4841V9.21417ZM77.5745 3.07247H74.9318V0.527701H72.436V9.21417H77.5745C79.6544 9.21417 80.9267 8.18648 80.9267 6.14332C80.9267 4.10017 79.6544 3.07247 77.5745 3.07247ZM77.2442 5.22574C78.0027 5.22574 78.3575 5.5683 78.3575 6.14332C78.3575 6.76728 78.0027 7.06091 77.2442 7.06091H74.9318V5.22574H77.2442ZM21.6125 18.7576H18.9209V17.681H24.1328V15.5277H16.4251V24.2142H21.6125C23.6679 24.2142 24.9158 23.2721 24.9158 21.388C24.9158 19.6385 23.6679 18.7576 21.6125 18.7576ZM21.4045 20.7151C22.0407 20.7151 22.3466 20.9598 22.3466 21.388C22.3466 21.8529 22.0407 22.0609 21.4045 22.0609H18.9209V20.7151H21.4045ZM30.6716 24.361C33.2897 24.361 35.3329 22.5748 35.3329 19.8709C35.3329 17.1304 33.2897 15.3809 30.6716 15.3809C28.0534 15.3809 26.0102 17.1304 26.0102 19.8709C26.0102 22.5748 28.0412 24.361 30.6716 24.361ZM30.6716 22.1343C29.3502 22.1343 28.555 21.1433 28.555 19.8709C28.555 18.5986 29.3625 17.6076 30.6716 17.6076C31.9929 17.6076 32.7881 18.5986 32.7881 19.8709C32.7881 21.1433 31.9929 22.1343 30.6716 22.1343ZM36.784 24.2142H39.2921V20.9598H42.9991V24.2142H45.5072V15.5277H42.9991V18.7821H39.2921V15.5277H36.784V24.2142ZM51.3587 24.2142L56.5951 15.5277H53.879L51.8114 18.9534L49.548 15.5277H46.5506L50.3922 21.3146L48.6427 24.2142H51.3587ZM61.2904 24.361C64.349 24.361 65.3278 22.1221 65.4501 21.3146H62.9176C62.783 21.5226 62.3426 22.1221 61.2904 22.1221C60.0547 22.1221 59.3207 21.1189 59.3207 19.8709C59.3207 18.623 60.0547 17.6198 61.2904 17.6198C62.3181 17.6198 62.7708 18.2315 62.9054 18.4395H65.4501C65.2911 17.4607 64.2512 15.3809 61.2904 15.3809C58.6233 15.3809 56.7637 17.2528 56.7637 19.8709C56.7637 22.4769 58.6233 24.361 61.2904 24.361Z" fill="white"/>
</svg>
