<svg width="225" height="79" viewBox="0 0 225 79" fill="none" xmlns="http://www.w3.org/2000/svg">
<path d="M17.4355 3.25553H1.20623V10.8219H9.64981V39.9906H17.4355V3.25553ZM22.8086 25.8449C22.8086 34.6722 29.1139 40.813 37.5575 40.813C46.0011 40.813 52.6353 34.7819 52.6353 25.8449V17.3464C52.6353 8.4094 46.0559 2.4331 37.6672 2.4331C29.2236 2.4331 22.8086 8.46423 22.8086 17.4013V25.8449ZM30.5943 17.4013C30.5943 12.8505 33.6098 10.1639 37.6672 10.1639C41.7793 10.1639 44.7949 12.9053 44.7949 17.3464V25.8449C44.7949 30.3408 41.6696 33.0274 37.5575 33.0274C33.555 33.0274 30.5943 30.3956 30.5943 25.8449V17.4013ZM69.0166 25.8449C69.0166 34.6722 75.3219 40.813 83.7655 40.813C92.2091 40.813 98.8433 34.7819 98.8433 25.8449V17.3464C98.8433 8.4094 92.2639 2.4331 83.8751 2.4331C75.4315 2.4331 69.0166 8.46423 69.0166 17.4013V25.8449ZM76.8023 17.4013C76.8023 12.8505 79.8178 10.1639 83.8751 10.1639C87.9873 10.1639 91.0028 12.9053 91.0028 17.3464V25.8449C91.0028 30.3408 87.8776 33.0274 83.7655 33.0274C79.763 33.0274 76.8023 30.3956 76.8023 25.8449V17.4013ZM103.177 25.8449C103.177 34.6722 109.483 40.813 117.926 40.813C126.37 40.813 133.004 34.7819 133.004 25.8449V17.3464C133.004 8.4094 126.425 2.4331 118.036 2.4331C109.592 2.4331 103.177 8.46423 103.177 17.4013V25.8449ZM110.963 17.4013C110.963 12.8505 113.979 10.1639 118.036 10.1639C122.148 10.1639 125.164 12.9053 125.164 17.3464V25.8449C125.164 30.3408 122.038 33.0274 117.926 33.0274C113.924 33.0274 110.963 30.3956 110.963 25.8449V17.4013ZM137.338 25.8449C137.338 34.6722 143.643 40.813 152.087 40.813C160.53 40.813 167.165 34.7819 167.165 25.8449V17.3464C167.165 8.4094 160.585 2.4331 152.197 2.4331C143.753 2.4331 137.338 8.46423 137.338 17.4013V25.8449ZM145.124 17.4013C145.124 12.8505 148.139 10.1639 152.197 10.1639C156.309 10.1639 159.324 12.9053 159.324 17.3464V25.8449C159.324 30.3408 156.199 33.0274 152.087 33.0274C148.084 33.0274 145.124 30.3956 145.124 25.8449V17.4013ZM206 24.8579C221.516 24.8579 221.462 3.25553 206 3.25553H190.155V18.114H185.494V24.8579H190.155V27.8187H185.494V34.5626H190.155V39.9906H197.94V34.5626H212.305V27.8187H197.94V24.8579H206ZM205.397 10.8219C210.88 10.8219 210.825 18.114 205.397 18.114H197.94V10.8219H205.397Z" fill="#06DCFF"/>
<path d="M1.50454 68.5549H5.61695V63.2188H11.6953V68.5549H15.8077V54.3119H11.6953V59.6481H5.61695V54.3119H1.50454V68.5549ZM25.8436 68.7957C30.1366 68.7957 33.4867 65.8668 33.4867 61.4334C33.4867 56.9399 30.1366 54.0712 25.8436 54.0712C21.5507 54.0712 18.2006 56.9399 18.2006 61.4334C18.2006 65.8668 21.5306 68.7957 25.8436 68.7957ZM25.8436 65.1446C23.6771 65.1446 22.3731 63.5197 22.3731 61.4334C22.3731 59.3471 23.6971 57.7222 25.8436 57.7222C28.0102 57.7222 29.3141 59.3471 29.3141 61.4334C29.3141 63.5197 28.0102 65.1446 25.8436 65.1446ZM35.8661 68.5549H44.8131C48.123 68.5549 49.8482 66.9501 49.8482 64.5027C49.8482 62.5769 48.765 61.4535 47.5613 61.0122C48.5243 60.5909 49.4671 59.6481 49.4671 58.1836C49.4671 55.8967 47.8021 54.3119 44.6927 54.3119H35.8661V68.5549ZM43.8903 57.5216C44.7328 57.5216 45.2744 57.8225 45.2744 58.5848C45.2744 59.3471 44.7328 59.6481 43.8903 59.6481H39.8982V57.5216H43.8903ZM43.9505 62.8577C45.0337 62.8577 45.6355 63.2389 45.6355 64.1015C45.6355 64.944 45.0337 65.3452 43.9505 65.3452H39.8982V62.8577H43.9505ZM60.6299 58.4845H56.2968V54.3119H52.2044V68.5549H60.6299C64.0401 68.5549 66.1264 66.8698 66.1264 63.5197C66.1264 60.1696 64.0401 58.4845 60.6299 58.4845ZM67.4304 68.5549H71.5428V54.3119H67.4304V68.5549ZM60.0882 62.0152C61.332 62.0152 61.9137 62.5769 61.9137 63.5197C61.9137 64.5428 61.332 65.0243 60.0882 65.0243H56.2968V62.0152H60.0882ZM74.557 68.5549H78.3284V58.9058L81.819 68.5549H84.5472L88.0979 58.8256V68.5549H92.11V54.3119H86.4128L83.4639 62.2158L80.515 54.3119H74.557V68.5549ZM100.044 68.5549H104.157L110.435 60.0091V68.5549H114.548V54.3119H110.435L104.157 62.8979V54.3119H100.044V68.5549ZM117.558 68.5549H121.67V57.8426H130.377V54.3119H117.558V68.5549ZM132.486 68.5549H136.578V63.9811H141.232C144.522 63.9811 146.528 62.3161 146.528 59.1465C146.528 55.9569 144.522 54.3119 141.232 54.3119H132.486V68.5549ZM140.731 57.8426C141.814 57.8426 142.315 58.2839 142.315 59.1465C142.315 59.969 141.794 60.4505 140.731 60.4505H136.578V57.8426H140.731ZM155.826 68.7957C160.119 68.7957 163.469 65.8668 163.469 61.4334C163.469 56.9399 160.119 54.0712 155.826 54.0712C151.533 54.0712 148.183 56.9399 148.183 61.4334C148.183 65.8668 151.513 68.7957 155.826 68.7957ZM155.826 65.1446C153.659 65.1446 152.355 63.5197 152.355 61.4334C152.355 59.3471 153.679 57.7222 155.826 57.7222C157.992 57.7222 159.296 59.3471 159.296 61.4334C159.296 63.5197 157.992 65.1446 155.826 65.1446ZM165.848 68.5549H169.961V62.3362L175.658 68.5549H181.215L174.374 61.1125L180.914 54.3119H175.658L169.961 60.2499V54.3119H165.848V68.5549ZM193.332 68.5549H197.766L191.727 54.3119H187.294L181.216 68.5549H185.388L186.211 66.5489H192.51L193.332 68.5549ZM187.615 63.1787L189.36 58.9259L191.105 63.1787H187.615ZM199.465 68.5549H203.237V58.9058L206.727 68.5549H209.455L213.006 58.8256V68.5549H217.018V54.3119H211.321L208.372 62.2158L205.423 54.3119H199.465V68.5549Z" fill="white"/>
<path d="M220.672 0.103487L220.684 1.70245L219.254 1.17347L218.701 2.65222L220.251 3.20524L219.145 4.49163L220.456 5.51353L221.502 4.25119L222.548 5.50151L223.858 4.47961L222.752 3.20524L224.303 2.65222L223.75 1.17347L222.319 1.70245L222.331 0.103487H220.672Z" fill="#06DCFF"/>
</svg>
