<svg width="377" height="52" viewBox="0 0 377 52" fill="none" xmlns="http://www.w3.org/2000/svg">
<g clip-path="url(#clip0_1_32389)">
<path d="M67.5886 0.802246H108.121L106.368 12.2767H79.4197L78.4337 18.8172H94.5371L92.6748 30.6359H76.681L75.5855 38.4386H105.163L103.301 50.6015H60.0299L67.5886 0.802246Z" fill="white"/>
<path d="M128.723 13.0799H111.744L113.606 0.802246H161.149L159.177 13.0799H142.198L136.501 50.6015H123.027L128.723 13.0799Z" fill="white"/>
<path d="M162.131 28.1115C161.584 11.9325 172.319 -0.000976562 186.998 -0.000976562C204.088 -0.000976562 209.127 11.9325 209.675 17.6697H195.872C195.214 16.2928 192.804 12.7357 187.437 12.7357C179.878 12.7357 175.606 19.5056 175.934 27.423C176.153 33.8488 179.549 38.668 185.465 38.668C190.942 38.668 193.352 35.3404 194.119 34.0783H207.812C206.936 38.5533 201.349 51.4047 185.903 51.4047C171.771 51.4047 162.57 41.8809 162.131 28.1115Z" fill="white"/>
<path d="M219.426 0.802246H233.01L228.518 30.7506L254.043 0.802246H267.626L260.068 50.6015H246.484L250.975 20.7678L225.451 50.6015H211.867L219.426 0.802246Z" fill="white"/>
<path d="M289.315 13.0799H272.335L274.198 0.802246H321.741L319.879 13.0799H302.899L297.202 50.6015H283.728L289.315 13.0799Z" fill="white"/>
<path d="M328.427 0.802246H342.011L337.41 30.8654L362.934 0.916991H376.518L368.959 50.7163H355.375L359.867 20.8826L334.342 50.7163H320.758L328.427 0.802246Z" fill="white"/>
<path d="M36.4817 19.2767H24.4316L25.4175 13.1952H54.0092L55.8715 0.91748H13.5865L10.8478 19.2767H1.75543L0.00268555 30.5217H9.09506L6.02775 50.602H34.0717C47.2173 50.602 55.981 44.6353 55.5429 32.4723C55.3238 23.9812 48.5319 19.2767 36.4817 19.2767ZM35.2767 38.2096H21.4738L22.6789 30.5217H36.9199C39.7681 30.5217 41.1922 31.5544 41.1922 33.505C41.4113 36.6031 39.0013 38.2096 35.2767 38.2096Z" fill="white"/>
</g>
<defs>
<clipPath id="clip0_1_32389">
<rect width="376.512" height="51.4057" fill="white"/>
</clipPath>
</defs>
</svg>
