<svg width="201" height="70" viewBox="0 0 201 70" fill="none" xmlns="http://www.w3.org/2000/svg">
<path d="M15.9862 2.23667H1.56455V8.96027H9.06771V34.8802H15.9862V2.23667ZM20.7609 22.31C20.7609 30.1542 26.3639 35.6111 33.8671 35.6111C41.3702 35.6111 47.2656 30.2517 47.2656 22.31V14.7582C47.2656 6.81651 41.419 1.50584 33.9645 1.50584C26.4614 1.50584 20.7609 6.86523 20.7609 14.8069V22.31ZM27.6794 14.8069C27.6794 10.763 30.3591 8.37561 33.9645 8.37561C37.6187 8.37561 40.2984 10.8117 40.2984 14.7582V22.31C40.2984 26.3052 37.5212 28.6926 33.8671 28.6926C30.3104 28.6926 27.6794 26.3539 27.6794 22.31V14.8069ZM61.8223 22.31C61.8223 30.1542 67.4253 35.6111 74.9285 35.6111C82.4316 35.6111 88.327 30.2517 88.327 22.31V14.7582C88.327 6.81651 82.4804 1.50584 75.0259 1.50584C67.5228 1.50584 61.8223 6.86523 61.8223 14.8069V22.31ZM68.7408 14.8069C68.7408 10.763 71.4205 8.37561 75.0259 8.37561C78.6801 8.37561 81.3598 10.8117 81.3598 14.7582V22.31C81.3598 26.3052 78.5826 28.6926 74.9285 28.6926C71.3718 28.6926 68.7408 26.3539 68.7408 22.31V14.8069ZM92.1783 22.31C92.1783 30.1542 97.7813 35.6111 105.284 35.6111C112.788 35.6111 118.683 30.2517 118.683 22.31V14.7582C118.683 6.81651 112.836 1.50584 105.382 1.50584C97.8787 1.50584 92.1783 6.86523 92.1783 14.8069V22.31ZM99.0968 14.8069C99.0968 10.763 101.776 8.37561 105.382 8.37561C109.036 8.37561 111.716 10.8117 111.716 14.7582V22.31C111.716 26.3052 108.939 28.6926 105.284 28.6926C101.728 28.6926 99.0968 26.3539 99.0968 22.31V14.8069ZM122.534 22.31C122.534 30.1542 128.137 35.6111 135.64 35.6111C143.144 35.6111 149.039 30.2517 149.039 22.31V14.7582C149.039 6.81651 143.192 1.50584 135.738 1.50584C128.235 1.50584 122.534 6.86523 122.534 14.8069V22.31ZM129.453 14.8069C129.453 10.763 132.132 8.37561 135.738 8.37561C139.392 8.37561 142.072 10.8117 142.072 14.7582V22.31C142.072 26.3052 139.295 28.6926 135.64 28.6926C132.084 28.6926 129.453 26.3539 129.453 22.31V14.8069ZM183.549 21.433C197.337 21.433 197.288 2.23667 183.549 2.23667H169.468V15.4403H165.327V21.433H169.468V24.064H165.327V30.0568H169.468V34.8802H176.387V30.0568H189.152V24.064H176.387V21.433H183.549ZM183.013 8.96027C187.885 8.96027 187.836 15.4403 183.013 15.4403H176.387V8.96027H183.013Z" fill="#06DCFF"/>
<path d="M1.82964 60.1469H5.48402V55.4051H10.8854V60.1469H14.5397V47.4902H10.8854V52.232H5.48402V47.4902H1.82964V60.1469ZM23.4579 60.3608C27.2727 60.3608 30.2497 57.7581 30.2497 53.8185C30.2497 49.8255 27.2727 47.2763 23.4579 47.2763C19.6431 47.2763 16.6661 49.8255 16.6661 53.8185C16.6661 57.7581 19.6252 60.3608 23.4579 60.3608ZM23.4579 57.1164C21.5326 57.1164 20.3739 55.6725 20.3739 53.8185C20.3739 51.9646 21.5505 50.5207 23.4579 50.5207C25.3831 50.5207 26.5418 51.9646 26.5418 53.8185C26.5418 55.6725 25.3831 57.1164 23.4579 57.1164ZM32.364 60.1469H40.3145C43.2559 60.1469 44.7889 58.7208 44.7889 56.546C44.7889 54.8346 43.8263 53.8364 42.7567 53.4442C43.6124 53.0698 44.4502 52.232 44.4502 50.9307C44.4502 48.8985 42.9706 47.4902 40.2076 47.4902H32.364V60.1469ZM39.4945 50.3424C40.2432 50.3424 40.7245 50.6098 40.7245 51.2872C40.7245 51.9646 40.2432 52.232 39.4945 52.232H35.9471V50.3424H39.4945ZM39.548 55.0842C40.5106 55.0842 41.0454 55.4229 41.0454 56.1894C41.0454 56.9381 40.5106 57.2947 39.548 57.2947H35.9471V55.0842H39.548ZM54.3697 51.1981H50.5192V47.4902H46.8827V60.1469H54.3697C57.4001 60.1469 59.2541 58.6494 59.2541 55.6725C59.2541 52.6955 57.4001 51.1981 54.3697 51.1981ZM60.4128 60.1469H64.0671V47.4902H60.4128V60.1469ZM53.8884 54.3355C54.9936 54.3355 55.5106 54.8346 55.5106 55.6725C55.5106 56.5816 54.9936 57.0094 53.8884 57.0094H50.5192V54.3355H53.8884ZM66.7457 60.1469H70.097V51.5724L73.1988 60.1469H75.6231L78.7784 51.5011V60.1469H82.3436V47.4902H77.281L74.6605 54.5138L72.0401 47.4902H66.7457V60.1469ZM89.3941 60.1469H93.0484L98.628 52.5529V60.1469H102.282V47.4902H98.628L93.0484 55.1199V47.4902H89.3941V60.1469ZM104.957 60.1469H108.612V50.6276H116.348V47.4902H104.957V60.1469ZM118.222 60.1469H121.859V56.0825H125.995C128.918 56.0825 130.701 54.6029 130.701 51.7863C130.701 48.952 128.918 47.4902 125.995 47.4902H118.222V60.1469ZM125.549 50.6276C126.512 50.6276 126.957 51.0198 126.957 51.7863C126.957 52.5172 126.494 52.9451 125.549 52.9451H121.859V50.6276H125.549ZM138.963 60.3608C142.778 60.3608 145.755 57.7581 145.755 53.8185C145.755 49.8255 142.778 47.2763 138.963 47.2763C135.148 47.2763 132.171 49.8255 132.171 53.8185C132.171 57.7581 135.13 60.3608 138.963 60.3608ZM138.963 57.1164C137.038 57.1164 135.879 55.6725 135.879 53.8185C135.879 51.9646 137.055 50.5207 138.963 50.5207C140.888 50.5207 142.047 51.9646 142.047 53.8185C142.047 55.6725 140.888 57.1164 138.963 57.1164ZM147.869 60.1469H151.523V54.6207L156.586 60.1469H161.524L155.445 53.5333L161.256 47.4902H156.586L151.523 52.7668V47.4902H147.869V60.1469ZM172.292 60.1469H176.231L170.866 47.4902H166.926L161.525 60.1469H165.233L165.964 58.3642H171.561L172.292 60.1469ZM167.211 55.3694L168.762 51.5903L170.313 55.3694H167.211ZM177.742 60.1469H181.093V51.5724L184.195 60.1469H186.619L189.775 51.5011V60.1469H193.34V47.4902H188.277L185.657 54.5138L183.036 47.4902H177.742V60.1469Z" fill="white"/>
<path d="M196.587 0.0943656L196.597 1.51524L195.326 1.04518L194.835 2.35922L196.213 2.85065L195.23 3.99377L196.394 4.90185L197.324 3.7801L198.253 4.89116L199.418 3.98308L198.435 2.85065L199.813 2.35922L199.322 1.04518L198.05 1.51524L198.061 0.0943656H196.587Z" fill="#06DCFF"/>
</svg>
